<?xml version="1.0" encoding="UTF-8" standalone="no"?>
<svg
   viewBox="0 -1 48 48"
   version="1.1"
   id="svg8"
   sodipodi:docname="phplogo.svg"
   width="48"
   height="48"
   inkscape:version="1.1.1 (3bf5ae0d25, 2021-09-20)"
   xmlns:inkscape="http://www.inkscape.org/namespaces/inkscape"
   xmlns:sodipodi="http://sodipodi.sourceforge.net/DTD/sodipodi-0.dtd"
   xmlns="http://www.w3.org/2000/svg"
   xmlns:svg="http://www.w3.org/2000/svg">
  <defs
     id="defs12" />
  <sodipodi:namedview
     id="namedview10"
     pagecolor="#787cb5"
     bordercolor="#666666"
     borderopacity="1.0"
     inkscape:pageshadow="2"
     inkscape:pageopacity="1"
     inkscape:pagecheckerboard="false"
     showgrid="false"
     inkscape:zoom="16.122035"
     inkscape:cx="11.599032"
     inkscape:cy="26.206369"
     inkscape:window-width="2560"
     inkscape:window-height="1017"
     inkscape:window-x="-8"
     inkscape:window-y="-8"
     inkscape:window-maximized="1"
     inkscape:current-layer="svg8" />
  <rect
     style="fill:#787cb5;stroke:none;stroke-width:1.9;stroke-linecap:round;stroke-linejoin:round;stroke-dashoffset:7.44945;paint-order:stroke markers fill;fill-opacity:1"
     id="rect1207"
     width="48.815178"
     height="48.194908"
     x="-0.06202691"
     y="-1"
     ry="0" />
  <path
     d="m 5.7173488,16.677569 h 6.4426292 c 1.890969,0.01588 3.261229,0.561077 4.110782,1.634696 0.849552,1.07362 1.129864,2.54004 0.841388,4.39926 -0.11204,0.849552 -0.360596,1.682776 -0.745229,2.500123 -0.36876,0.817349 -0.881303,1.554415 -1.538537,2.211649 -0.801474,0.833224 -1.658738,1.362096 -2.572245,1.586618 -0.913507,0.22452 -1.859219,0.336555 -2.8366804,0.336555 H 6.5346972 L 5.6211901,33.914006 H 2.2796774 L 5.7173488,16.677569 v 0 m 2.8126403,2.74052 -1.4423798,7.211899 c 0.096159,0.01584 0.1923173,0.02404 0.288476,0.02404 0.1120353,0 0.2245215,0 0.3365555,0 1.5385382,0.01584 2.8208042,-0.136068 3.8463462,-0.456753 1.025541,-0.336557 1.71498,-1.506335 2.067411,-3.509791 0.288476,-1.682776 0,-2.652528 -0.865428,-2.9088 -0.849553,-0.25627 -1.915009,-0.37647 -3.1972754,-0.360595 -0.1923173,0.01584 -0.3764703,0.02404 -0.5529122,0.02404 -0.1601131,0 -0.3283907,0 -0.5048331,0 l 0.024041,-0.02404"
     id="path2"
     style="stroke:#ffffff;stroke-width:0.562;stroke-linecap:round;stroke-linejoin:round;stroke-miterlimit:4;stroke-dasharray:none;stroke-opacity:1;paint-order:stroke markers fill;fill:#ffffff;fill-opacity:1" />
  <path
     d="m 20.918578,12.085994 h 3.317473 l -0.937546,4.591575 h 2.980919 c 1.634696,0.0322 2.852554,0.368759 3.654028,1.009666 0.817349,0.640905 1.057744,1.859218 0.72119,3.654027 L 29.043985,29.34647 H 25.67843 l 1.53854,-7.644612 c 0.160111,-0.801474 0.11204,-1.370261 -0.144226,-1.706817 -0.256272,-0.336555 -0.809184,-0.504833 -1.658739,-0.504833 l -2.668402,-0.02403 -1.97125,9.8803 h -3.317481 l 3.461711,-17.260484 v 0"
     id="path4"
     style="stroke:#ffffff;stroke-width:0.562;stroke-linecap:round;stroke-linejoin:round;stroke-miterlimit:4;stroke-dasharray:none;stroke-opacity:1;paint-order:stroke markers fill;fill:#ffffff;fill-opacity:1" />
  <path
     d="m 34.217047,16.677569 h 6.442629 c 1.890972,0.01587 3.26123,0.561077 4.110782,1.634696 0.849555,1.07362 1.129865,2.54004 0.841387,4.39926 -0.112024,0.849552 -0.360592,1.682776 -0.745227,2.500123 -0.36876,0.817349 -0.881302,1.554415 -1.538538,2.211649 -0.801474,0.833224 -1.658737,1.362096 -2.572244,1.586618 -0.913508,0.22452 -1.859218,0.336555 -2.83668,0.336555 h -2.88476 l -0.913506,4.567536 h -3.341514 l 3.437671,-17.236437 v 0 m 2.812642,2.74052 -1.442381,7.211899 c 0.09616,0.01584 0.192318,0.02404 0.288477,0.02404 0.112039,0 0.224521,0 0.336555,0 1.538538,0.01584 2.820806,-0.136068 3.846346,-0.456753 1.025541,-0.336557 1.71498,-1.506335 2.06741,-3.509791 0.288477,-1.682776 0,-2.652528 -0.865426,-2.9088 -0.849554,-0.25627 -1.91501,-0.37647 -3.197278,-0.360595 -0.192314,0.01584 -0.376468,0.02404 -0.552911,0.02404 -0.160111,0 -0.328391,0 -0.504832,0 l 0.02404,-0.02404"
     id="path6"
     style="stroke:#ffffff;stroke-width:0.562;stroke-linecap:round;stroke-linejoin:round;stroke-miterlimit:4;stroke-dasharray:none;stroke-opacity:1;paint-order:stroke markers fill;fill:#ffffff;fill-opacity:1" />
</svg>
