<?xml version="1.0" encoding="UTF-8" standalone="no"?>
<!-- Generator: Adobe Illustrator 19.0.0, SVG Export Plug-In . SVG Version: 6.00 Build 0)  -->

<svg
   version="1.1"
   id="Layer_1"
   x="0px"
   y="0px"
   viewBox="0 0 490.667 490.667"
   style="enable-background:new 0 0 490.667 490.667;"
   xml:space="preserve"
   sodipodi:docname="sqllogo.svg"
   inkscape:version="1.1.1 (3bf5ae0d25, 2021-09-20)"
   xmlns:inkscape="http://www.inkscape.org/namespaces/inkscape"
   xmlns:sodipodi="http://sodipodi.sourceforge.net/DTD/sodipodi-0.dtd"
   xmlns="http://www.w3.org/2000/svg"
   xmlns:svg="http://www.w3.org/2000/svg"><defs
   id="defs71" /><sodipodi:namedview
   id="namedview69"
   pagecolor="#ffffff"
   bordercolor="#666666"
   borderopacity="1.0"
   inkscape:pageshadow="2"
   inkscape:pageopacity="0.0"
   inkscape:pagecheckerboard="0"
   showgrid="false"
   inkscape:zoom="9.8918024"
   inkscape:cx="225.74248"
   inkscape:cy="391.58688"
   inkscape:window-width="2560"
   inkscape:window-height="1017"
   inkscape:window-x="-8"
   inkscape:window-y="-8"
   inkscape:window-maximized="1"
   inkscape:current-layer="Layer_1" />
<g
   id="g6">
	<g
   id="g4">
		<path
   d="M245.333,0C172.928,0,96,22.421,96,64v192c0,42.027,75.115,64,149.333,64s149.333-21.973,149.333-64V64    C394.667,22.421,317.739,0,245.333,0z M373.333,256c0,20.181-52.565,42.667-128,42.667s-128-22.485-128-42.667v-29.909    c27.883,19.584,78.933,29.909,128,29.909s100.117-10.325,128-29.909V256z M373.333,192c0,17.813-48.704,42.667-128,42.667    s-128-24.853-128-42.667v-29.909c27.883,19.584,78.933,29.909,128,29.909s100.117-10.325,128-29.909V192z M373.333,128    c0,17.813-48.704,42.667-128,42.667s-128-24.853-128-42.667V98.091c27.883,19.584,78.933,29.909,128,29.909    s100.117-10.325,128-29.909V128z M245.333,106.667c-79.296,0-128-24.853-128-42.667c0-17.813,48.704-42.667,128-42.667    s128,24.853,128,42.667C373.333,81.813,324.629,106.667,245.333,106.667z"
   id="path2" />
	</g>
</g>
<g
   id="g12">
	<g
   id="g10">
		<path
   d="m 248.661,384.405 -3.157,-0.533 C 226.795,380.821 224,375.957 224,373.333 c 0,-4.245 8.512,-10.667 21.355,-10.667 12.608,0 20.928,5.995 21.355,10.304 0.555,5.867 5.739,10.389 11.627,9.6 5.867,-0.555 10.155,-5.76 9.6,-11.627 -1.621,-16.896 -19.925,-29.632 -42.603,-29.632 -23.936,0 -42.688,14.059 -42.688,32 0,16.704 13.248,27.328 39.403,31.595 l 3.157,0.534 c 17.728,2.923 21.44,7.36 21.44,10.56 0,4.245 -8.512,10.667 -21.355,10.667 -12.608,0 -20.928,-6.016 -21.355,-10.325 -0.555,-5.867 -5.611,-10.24 -11.627,-9.6 -5.867,0.555 -10.155,5.76 -9.6,11.627 1.622,16.895 19.926,29.631 42.603,29.631 23.936,0 42.688,-14.059 42.688,-32 0,-16.683 -13.227,-27.307 -39.339,-31.595 z"
   id="path8"
   sodipodi:nodetypes="ccsscccssccsscccssc" />
	</g>
</g>
<g
   id="g18">
	<g
   id="g16">
		<path
   d="M394.667,373.333c0-17.643-14.357-32-32-32h-21.333c-17.643,0-32,14.357-32,32V416c0,17.643,14.357,32,32,32h21.333    c4.928,0,9.536-1.216,13.696-3.2l0.085,0.085c2.091,2.069,4.821,3.115,7.552,3.115s5.461-1.045,7.531-3.115    c4.16-4.16,4.16-10.923,0-15.083l-0.085-0.085c2.005-4.16,3.221-8.789,3.221-13.717V373.333z M373.333,411.605l-3.136-3.136    c-4.16-4.16-10.923-4.16-15.083,0c-4.16,4.16-4.16,10.923,0,15.083l3.115,3.115h-16.896c-5.888,0-10.667-4.779-10.667-10.667    v-42.667c0-5.888,4.779-10.667,10.667-10.667h21.333c5.888,0,10.667,4.779,10.667,10.667V411.605z"
   id="path14" />
	</g>
</g>
<g
   id="g24">
	<g
   id="g22">
		<path
   d="M469.333,426.667h-32V352c0-5.888-4.779-10.667-10.667-10.667c-5.888,0-10.667,4.779-10.667,10.667v85.333    c0,5.888,4.779,10.667,10.667,10.667h42.667c5.888,0,10.667-4.779,10.667-10.667C480,431.445,475.221,426.667,469.333,426.667z"
   id="path20" />
	</g>
</g>
<g
   id="g30">
	<g
   id="g28">
		<path
   d="M175.445,385.109c-5.291-2.624-11.669-0.491-14.315,4.779l-11.797,23.616l-11.797-23.595    c-2.645-5.269-9.045-7.403-14.315-4.779c-5.269,2.645-7.424,9.045-4.779,14.315l18.965,37.909l-18.944,37.867    c-2.624,5.269-0.491,11.669,4.779,14.315c1.536,0.768,3.157,1.131,4.757,1.131c3.904,0,7.659-2.155,9.557-5.909l42.667-85.333    C182.848,394.155,180.715,387.755,175.445,385.109z"
   id="path26" />
	</g>
</g>
<g
   id="g36">
	<g
   id="g34">
		<path
   d="M88.704,341.888c-4.331-1.472-9.152,0.043-11.904,3.712l-23.467,31.275L29.867,345.6    c-2.752-3.669-7.509-5.184-11.904-3.712c-4.352,1.451-7.296,5.525-7.296,10.112v85.333c0,5.888,4.779,10.667,10.667,10.667    S32,443.221,32,437.333V384l12.8,17.067c4.032,5.376,13.056,5.376,17.067,0L74.667,384v53.333c0,5.888,4.779,10.667,10.667,10.667    S96,443.221,96,437.333V352C96,347.413,93.056,343.339,88.704,341.888z"
   id="path32" />
	</g>
</g>
<g
   id="g38">
</g>
<g
   id="g40">
</g>
<g
   id="g42">
</g>
<g
   id="g44">
</g>
<g
   id="g46">
</g>
<g
   id="g48">
</g>
<g
   id="g50">
</g>
<g
   id="g52">
</g>
<g
   id="g54">
</g>
<g
   id="g56">
</g>
<g
   id="g58">
</g>
<g
   id="g60">
</g>
<g
   id="g62">
</g>
<g
   id="g64">
</g>
<g
   id="g66">
</g>
</svg>
