<svg id="visual" viewBox="0 0 900 600" width="900" height="600" xmlns="http://www.w3.org/2000/svg" xmlns:xlink="http://www.w3.org/1999/xlink" version="1.1"><path d="M0 181L43 133L86 151L129 223L171 193L214 181L257 205L300 127L343 121L386 145L429 151L471 193L514 187L557 193L600 193L643 115L686 211L729 145L771 199L814 121L857 169L900 211L900 0L857 0L814 0L771 0L729 0L686 0L643 0L600 0L557 0L514 0L471 0L429 0L386 0L343 0L300 0L257 0L214 0L171 0L129 0L86 0L43 0L0 0Z" fill="#737373"></path><path d="M0 301L43 247L86 241L129 319L171 271L214 283L257 277L300 229L343 217L386 193L429 229L471 277L514 295L557 295L600 301L643 175L686 271L729 259L771 283L814 169L857 265L900 289L900 209L857 167L814 119L771 197L729 143L686 209L643 113L600 191L557 191L514 185L471 191L429 149L386 143L343 119L300 125L257 203L214 179L171 191L129 221L86 149L43 131L0 179Z" fill="#6e5d8b"></path><path d="M0 349L43 301L86 307L129 391L171 331L214 361L257 343L300 301L343 283L386 289L429 289L471 373L514 337L557 367L600 397L643 223L686 325L729 313L771 325L814 235L857 307L900 361L900 287L857 263L814 167L771 281L729 257L686 269L643 173L600 299L557 293L514 293L471 275L429 227L386 191L343 215L300 227L257 275L214 281L171 269L129 317L86 239L43 245L0 299Z" fill="#6346a2"></path><path d="M0 523L43 535L86 469L129 499L171 475L214 481L257 523L300 487L343 499L386 481L429 487L471 517L514 469L557 529L600 511L643 445L686 493L729 541L771 517L814 451L857 499L900 475L900 359L857 305L814 233L771 323L729 311L686 323L643 221L600 395L557 365L514 335L471 371L429 287L386 287L343 281L300 299L257 341L214 359L171 329L129 389L86 305L43 299L0 347Z" fill="#4e2cb9"></path><path d="M0 601L43 601L86 601L129 601L171 601L214 601L257 601L300 601L343 601L386 601L429 601L471 601L514 601L557 601L600 601L643 601L686 601L729 601L771 601L814 601L857 601L900 601L900 473L857 497L814 449L771 515L729 539L686 491L643 443L600 509L557 527L514 467L471 515L429 485L386 479L343 497L300 485L257 521L214 479L171 473L129 497L86 467L43 533L0 521Z" fill="#1900cf"></path></svg>