<svg id="visual" viewBox="0 0 900 600" width="900" height="600" xmlns="http://www.w3.org/2000/svg" xmlns:xlink="http://www.w3.org/1999/xlink" version="1.1"><path d="M0 217L43 247L86 145L129 121L171 241L214 145L257 217L300 151L343 217L386 187L429 205L471 223L514 181L557 133L600 211L643 145L686 133L729 205L771 247L814 103L857 157L900 193L900 0L857 0L814 0L771 0L729 0L686 0L643 0L600 0L557 0L514 0L471 0L429 0L386 0L343 0L300 0L257 0L214 0L171 0L129 0L86 0L43 0L0 0Z" fill="#737373"></path><path d="M0 319L43 355L86 247L129 235L171 307L214 229L257 271L300 223L343 283L386 265L429 295L471 283L514 265L557 187L600 313L643 259L686 229L729 289L771 295L814 193L857 265L900 259L900 191L857 155L814 101L771 245L729 203L686 131L643 143L600 209L557 131L514 179L471 221L429 203L386 185L343 215L300 149L257 215L214 143L171 239L129 119L86 143L43 245L0 215Z" fill="#6e5d8b"></path><path d="M0 403L43 415L86 337L129 277L171 403L214 283L257 361L300 313L343 367L386 331L429 391L471 355L514 355L557 235L600 385L643 313L686 277L729 379L771 367L814 271L857 313L900 313L900 257L857 263L814 191L771 293L729 287L686 227L643 257L600 311L557 185L514 263L471 281L429 293L386 263L343 281L300 221L257 269L214 227L171 305L129 233L86 245L43 353L0 317Z" fill="#6346a2"></path><path d="M0 487L43 487L86 409L129 361L171 505L214 385L257 499L300 439L343 457L386 475L429 499L471 481L514 451L557 403L600 457L643 385L686 427L729 493L771 493L814 385L857 445L900 463L900 311L857 311L814 269L771 365L729 377L686 275L643 311L600 383L557 233L514 353L471 353L429 389L386 329L343 365L300 311L257 359L214 281L171 401L129 275L86 335L43 413L0 401Z" fill="#4e2cb9"></path><path d="M0 601L43 601L86 601L129 601L171 601L214 601L257 601L300 601L343 601L386 601L429 601L471 601L514 601L557 601L600 601L643 601L686 601L729 601L771 601L814 601L857 601L900 601L900 461L857 443L814 383L771 491L729 491L686 425L643 383L600 455L557 401L514 449L471 479L429 497L386 473L343 455L300 437L257 497L214 383L171 503L129 359L86 407L43 485L0 485Z" fill="#1900cf"></path></svg>