<svg id="visual" viewBox="0 0 900 600" width="900" height="600" xmlns="http://www.w3.org/2000/svg" xmlns:xlink="http://www.w3.org/1999/xlink" version="1.1"><path d="M0 151L43 145L86 139L129 175L171 127L214 121L257 199L300 145L343 187L386 151L429 127L471 151L514 139L557 169L600 253L643 217L686 241L729 169L771 121L814 151L857 175L900 103L900 0L857 0L814 0L771 0L729 0L686 0L643 0L600 0L557 0L514 0L471 0L429 0L386 0L343 0L300 0L257 0L214 0L171 0L129 0L86 0L43 0L0 0Z" fill="#737373"></path><path d="M0 217L43 235L86 223L129 271L171 223L214 193L257 247L300 187L343 241L386 217L429 175L471 223L514 193L557 241L600 301L643 307L686 325L729 229L771 217L814 235L857 217L900 151L900 101L857 173L814 149L771 119L729 167L686 239L643 215L600 251L557 167L514 137L471 149L429 125L386 149L343 185L300 143L257 197L214 119L171 125L129 173L86 137L43 143L0 149Z" fill="#6e5d8b"></path><path d="M0 331L43 361L86 307L129 337L171 337L214 343L257 385L300 331L343 331L386 319L429 337L471 349L514 325L557 307L600 397L643 439L686 403L729 367L771 355L814 319L857 355L900 247L900 149L857 215L814 233L771 215L729 227L686 323L643 305L600 299L557 239L514 191L471 221L429 173L386 215L343 239L300 185L257 245L214 191L171 221L129 269L86 221L43 233L0 215Z" fill="#6346a2"></path><path d="M0 541L43 541L86 511L129 553L171 517L214 553L257 505L300 511L343 535L386 547L429 547L471 505L514 541L557 535L600 535L643 541L686 541L729 535L771 517L814 493L857 511L900 487L900 245L857 353L814 317L771 353L729 365L686 401L643 437L600 395L557 305L514 323L471 347L429 335L386 317L343 329L300 329L257 383L214 341L171 335L129 335L86 305L43 359L0 329Z" fill="#4e2cb9"></path><path d="M0 601L43 601L86 601L129 601L171 601L214 601L257 601L300 601L343 601L386 601L429 601L471 601L514 601L557 601L600 601L643 601L686 601L729 601L771 601L814 601L857 601L900 601L900 485L857 509L814 491L771 515L729 533L686 539L643 539L600 533L557 533L514 539L471 503L429 545L386 545L343 533L300 509L257 503L214 551L171 515L129 551L86 509L43 539L0 539Z" fill="#1900cf"></path></svg>