<svg id="visual" viewBox="0 0 900 600" width="900" height="600" xmlns="http://www.w3.org/2000/svg" xmlns:xlink="http://www.w3.org/1999/xlink" version="1.1"><path d="M0 187L43 139L86 199L129 217L171 175L214 241L257 163L300 205L343 217L386 139L429 157L471 169L514 181L557 145L600 127L643 181L686 175L729 115L771 139L814 151L857 241L900 241L900 0L857 0L814 0L771 0L729 0L686 0L643 0L600 0L557 0L514 0L471 0L429 0L386 0L343 0L300 0L257 0L214 0L171 0L129 0L86 0L43 0L0 0Z" fill="#737373"></path><path d="M0 319L43 307L86 331L129 295L171 289L214 343L257 271L300 361L343 355L386 241L429 277L471 307L514 343L557 295L600 277L643 307L686 247L729 223L771 259L814 253L857 391L900 319L900 239L857 239L814 149L771 137L729 113L686 173L643 179L600 125L557 143L514 179L471 167L429 155L386 137L343 215L300 203L257 161L214 239L171 173L129 215L86 197L43 137L0 185Z" fill="#6e5d8b"></path><path d="M0 415L43 499L86 445L129 451L171 427L214 439L257 433L300 469L343 451L386 409L429 445L471 439L514 481L557 457L600 499L643 415L686 469L729 439L771 445L814 439L857 487L900 421L900 317L857 389L814 251L771 257L729 221L686 245L643 305L600 275L557 293L514 341L471 305L429 275L386 239L343 353L300 359L257 269L214 341L171 287L129 293L86 329L43 305L0 317Z" fill="#6346a2"></path><path d="M0 505L43 559L86 529L129 511L171 511L214 535L257 535L300 529L343 541L386 523L429 517L471 511L514 535L557 523L600 553L643 517L686 535L729 529L771 517L814 541L857 535L900 505L900 419L857 485L814 437L771 443L729 437L686 467L643 413L600 497L557 455L514 479L471 437L429 443L386 407L343 449L300 467L257 431L214 437L171 425L129 449L86 443L43 497L0 413Z" fill="#4e2cb9"></path><path d="M0 601L43 601L86 601L129 601L171 601L214 601L257 601L300 601L343 601L386 601L429 601L471 601L514 601L557 601L600 601L643 601L686 601L729 601L771 601L814 601L857 601L900 601L900 503L857 533L814 539L771 515L729 527L686 533L643 515L600 551L557 521L514 533L471 509L429 515L386 521L343 539L300 527L257 533L214 533L171 509L129 509L86 527L43 557L0 503Z" fill="#1900cf"></path></svg>