<svg id="visual" viewBox="0 0 900 600" width="900" height="600" xmlns="http://www.w3.org/2000/svg" xmlns:xlink="http://www.w3.org/1999/xlink" version="1.1"><path d="M0 187L43 199L86 121L129 217L171 223L214 157L257 109L300 133L343 193L386 121L429 157L471 193L514 109L557 139L600 163L643 157L686 169L729 121L771 181L814 181L857 205L900 169L900 0L857 0L814 0L771 0L729 0L686 0L643 0L600 0L557 0L514 0L471 0L429 0L386 0L343 0L300 0L257 0L214 0L171 0L129 0L86 0L43 0L0 0Z" fill="#737373"></path><path d="M0 235L43 241L86 163L129 313L171 283L214 253L257 199L300 205L343 247L386 163L429 253L471 277L514 157L557 205L600 229L643 211L686 253L729 205L771 253L814 271L857 283L900 241L900 167L857 203L814 179L771 179L729 119L686 167L643 155L600 161L557 137L514 107L471 191L429 155L386 119L343 191L300 131L257 107L214 155L171 221L129 215L86 119L43 197L0 185Z" fill="#6e5d8b"></path><path d="M0 361L43 307L86 307L129 415L171 379L214 325L257 325L300 307L343 385L386 247L429 349L471 361L514 259L557 301L600 319L643 307L686 373L729 337L771 397L814 349L857 427L900 331L900 239L857 281L814 269L771 251L729 203L686 251L643 209L600 227L557 203L514 155L471 275L429 251L386 161L343 245L300 203L257 197L214 251L171 281L129 311L86 161L43 239L0 233Z" fill="#6346a2"></path><path d="M0 505L43 481L86 487L129 535L171 523L214 499L257 547L300 529L343 511L386 487L429 553L471 511L514 481L557 541L600 493L643 523L686 547L729 505L771 529L814 499L857 529L900 505L900 329L857 425L814 347L771 395L729 335L686 371L643 305L600 317L557 299L514 257L471 359L429 347L386 245L343 383L300 305L257 323L214 323L171 377L129 413L86 305L43 305L0 359Z" fill="#4e2cb9"></path><path d="M0 601L43 601L86 601L129 601L171 601L214 601L257 601L300 601L343 601L386 601L429 601L471 601L514 601L557 601L600 601L643 601L686 601L729 601L771 601L814 601L857 601L900 601L900 503L857 527L814 497L771 527L729 503L686 545L643 521L600 491L557 539L514 479L471 509L429 551L386 485L343 509L300 527L257 545L214 497L171 521L129 533L86 485L43 479L0 503Z" fill="#1900cf"></path></svg>