<svg id="visual" viewBox="0 0 900 600" width="900" height="600" xmlns="http://www.w3.org/2000/svg" xmlns:xlink="http://www.w3.org/1999/xlink" version="1.1"><path d="M0 127L43 85L86 133L129 67L171 91L214 61L257 133L300 91L343 61L386 91L429 121L471 103L514 73L557 85L600 73L643 103L686 91L729 85L771 121L814 73L857 109L900 85L900 0L857 0L814 0L771 0L729 0L686 0L643 0L600 0L557 0L514 0L471 0L429 0L386 0L343 0L300 0L257 0L214 0L171 0L129 0L86 0L43 0L0 0Z" fill="#737373"></path><path d="M0 319L43 199L86 235L129 271L171 301L214 265L257 295L300 217L343 205L386 301L429 205L471 295L514 217L557 313L600 295L643 337L686 223L729 313L771 259L814 211L857 265L900 319L900 83L857 107L814 71L771 119L729 83L686 89L643 101L600 71L557 83L514 71L471 101L429 119L386 89L343 59L300 89L257 131L214 59L171 89L129 65L86 131L43 83L0 125Z" fill="#6e5d8b"></path><path d="M0 457L43 451L86 457L129 463L171 421L214 421L257 445L300 493L343 439L386 433L429 415L471 433L514 439L557 427L600 421L643 481L686 451L729 457L771 427L814 451L857 439L900 445L900 317L857 263L814 209L771 257L729 311L686 221L643 335L600 293L557 311L514 215L471 293L429 203L386 299L343 203L300 215L257 293L214 263L171 299L129 269L86 233L43 197L0 317Z" fill="#6346a2"></path><path d="M0 529L43 529L86 553L129 517L171 535L214 541L257 547L300 547L343 553L386 505L429 523L471 505L514 535L557 523L600 541L643 535L686 541L729 511L771 517L814 523L857 505L900 553L900 443L857 437L814 449L771 425L729 455L686 449L643 479L600 419L557 425L514 437L471 431L429 413L386 431L343 437L300 491L257 443L214 419L171 419L129 461L86 455L43 449L0 455Z" fill="#4e2cb9"></path><path d="M0 601L43 601L86 601L129 601L171 601L214 601L257 601L300 601L343 601L386 601L429 601L471 601L514 601L557 601L600 601L643 601L686 601L729 601L771 601L814 601L857 601L900 601L900 551L857 503L814 521L771 515L729 509L686 539L643 533L600 539L557 521L514 533L471 503L429 521L386 503L343 551L300 545L257 545L214 539L171 533L129 515L86 551L43 527L0 527Z" fill="#1900cf"></path></svg>