<svg id="visual" viewBox="0 0 900 600" width="900" height="600" xmlns="http://www.w3.org/2000/svg" xmlns:xlink="http://www.w3.org/1999/xlink" version="1.1"><rect x="0" y="0" width="900" height="600" fill="#001220"></rect><g fill="none" stroke="#3ba623" stroke-width="2"><circle r="28" cx="799" cy="258"></circle><circle r="0" cx="110" cy="106"></circle><circle r="19" cx="326" cy="409"></circle><circle r="11" cx="390" cy="7"></circle><circle r="13" cx="500" cy="337"></circle><circle r="25" cx="213" cy="27"></circle><circle r="13" cx="152" cy="592"></circle><circle r="23" cx="666" cy="418"></circle><circle r="6" cx="643" cy="591"></circle><circle r="26" cx="712" cy="259"></circle><circle r="4" cx="210" cy="486"></circle><circle r="1" cx="159" cy="409"></circle><circle r="21" cx="887" cy="248"></circle><circle r="18" cx="15" cy="487"></circle><circle r="7" cx="400" cy="325"></circle><circle r="16" cx="413" cy="160"></circle><circle r="17" cx="729" cy="146"></circle><circle r="5" cx="714" cy="488"></circle><circle r="26" cx="443" cy="242"></circle><circle r="13" cx="845" cy="205"></circle><circle r="9" cx="194" cy="134"></circle><circle r="17" cx="177" cy="225"></circle><circle r="14" cx="51" cy="314"></circle><circle r="6" cx="766" cy="55"></circle><circle r="20" cx="659" cy="352"></circle><circle r="20" cx="284" cy="458"></circle><circle r="8" cx="555" cy="78"></circle><circle r="26" cx="360" cy="70"></circle><circle r="0" cx="495" cy="582"></circle><circle r="24" cx="829" cy="564"></circle><circle r="14" cx="35" cy="144"></circle><circle r="7" cx="34" cy="70"></circle><circle r="3" cx="257" cy="156"></circle><circle r="18" cx="351" cy="242"></circle><circle r="14" cx="838" cy="318"></circle><circle r="13" cx="572" cy="156"></circle><circle r="19" cx="469" cy="392"></circle><circle r="21" cx="521" cy="266"></circle><circle r="21" cx="513" cy="189"></circle><circle r="10" cx="132" cy="6"></circle><circle r="2" cx="48" cy="548"></circle><circle r="1" cx="538" cy="507"></circle><circle r="4" cx="626" cy="184"></circle><circle r="2" cx="597" cy="377"></circle><circle r="3" cx="802" cy="374"></circle><circle r="22" cx="429" cy="593"></circle><circle r="20" cx="63" cy="433"></circle><circle r="0" cx="333" cy="543"></circle><circle r="13" cx="399" cy="434"></circle><circle r="21" cx="118" cy="242"></circle><circle r="14" cx="596" cy="280"></circle><circle r="10" cx="442" cy="59"></circle><circle r="25" cx="42" cy="11"></circle><circle r="2" cx="256" cy="73"></circle><circle r="7" cx="638" cy="38"></circle><circle r="12" cx="793" cy="477"></circle><circle r="17" cx="203" cy="282"></circle><circle r="8" cx="223" cy="582"></circle><circle r="20" cx="876" cy="26"></circle><circle r="12" cx="697" cy="68"></circle><circle r="16" cx="557" cy="587"></circle><circle r="0" cx="743" cy="395"></circle><circle r="26" cx="477" cy="130"></circle><circle r="14" cx="708" cy="566"></circle><circle r="19" cx="654" cy="246"></circle><circle r="14" cx="254" cy="365"></circle><circle r="-1" cx="310" cy="317"></circle><circle r="20" cx="251" cy="248"></circle><circle r="21" cx="25" cy="244"></circle><circle r="17" cx="161" cy="528"></circle><circle r="12" cx="114" cy="346"></circle><circle r="17" cx="14" cy="373"></circle><circle r="15" cx="627" cy="500"></circle><circle r="23" cx="568" cy="219"></circle><circle r="22" cx="183" cy="344"></circle><circle r="18" cx="879" cy="453"></circle><circle r="0" cx="105" cy="476"></circle><circle r="24" cx="418" cy="535"></circle><circle r="16" cx="127" cy="173"></circle><circle r="15" cx="533" cy="448"></circle><circle r="13" cx="768" cy="554"></circle><circle r="20" cx="477" cy="484"></circle><circle r="21" cx="697" cy="199"></circle><circle r="19" cx="532" cy="24"></circle><circle r="3" cx="841" cy="107"></circle><circle r="16" cx="650" cy="109"></circle><circle r="17" cx="336" cy="170"></circle><circle r="0" cx="885" cy="393"></circle><circle r="18" cx="892" cy="580"></circle><circle r="24" cx="688" cy="9"></circle><circle r="13" cx="294" cy="3"></circle><circle r="17" cx="750" cy="312"></circle><circle r="9" cx="601" cy="437"></circle><circle r="25" cx="281" cy="597"></circle><circle r="7" cx="894" cy="158"></circle></g></svg>