<svg id="visual" viewBox="0 0 900 600" width="900" height="600" xmlns="http://www.w3.org/2000/svg" xmlns:xlink="http://www.w3.org/1999/xlink" version="1.1"><g stroke-width="1" stroke-linejoin="bevel"><path d="M459 196L676 0L440 0Z" fill="#365969" stroke="#365969"></path><path d="M459 196L679 180L676 0Z" fill="#365868" stroke="#365868"></path><path d="M459 196L650 380L679 180Z" fill="#37515d" stroke="#37515d"></path><path d="M440 0L233 210L459 196Z" fill="#37515d" stroke="#37515d"></path><path d="M459 196L475 426L650 380Z" fill="#375462" stroke="#375462"></path><path d="M236 0L233 210L440 0Z" fill="#375563" stroke="#375563"></path><path d="M238 425L475 426L459 196Z" fill="#375766" stroke="#375766"></path><path d="M900 229L900 0L679 180Z" fill="#375360" stroke="#375360"></path><path d="M679 180L900 0L676 0Z" fill="#365a6b" stroke="#365a6b"></path><path d="M650 380L900 229L679 180Z" fill="#375766" stroke="#375766"></path><path d="M660 600L900 377L650 380Z" fill="#37525f" stroke="#37525f"></path><path d="M650 380L900 377L900 229Z" fill="#37515d" stroke="#37515d"></path><path d="M233 210L238 425L459 196Z" fill="#365868" stroke="#365868"></path><path d="M430 600L660 600L475 426Z" fill="#365969" stroke="#365969"></path><path d="M475 426L660 600L650 380Z" fill="#375766" stroke="#375766"></path><path d="M238 425L430 600L475 426Z" fill="#375563" stroke="#375563"></path><path d="M236 0L0 0L233 210Z" fill="#365868" stroke="#365868"></path><path d="M233 210L0 229L238 425Z" fill="#375563" stroke="#375563"></path><path d="M0 0L0 229L233 210Z" fill="#375360" stroke="#375360"></path><path d="M238 425L219 600L430 600Z" fill="#37505c" stroke="#37505c"></path><path d="M0 414L219 600L238 425Z" fill="#375462" stroke="#375462"></path><path d="M660 600L900 600L900 377Z" fill="#37515d" stroke="#37515d"></path><path d="M0 229L0 414L238 425Z" fill="#375360" stroke="#375360"></path><path d="M0 414L0 600L219 600Z" fill="#375665" stroke="#375665"></path></g></svg>