<svg id="visual" viewBox="0 0 900 600" width="900" height="600" xmlns="http://www.w3.org/2000/svg" xmlns:xlink="http://www.w3.org/1999/xlink" version="1.1"><rect width="900" height="600" fill="#113537"></rect><g><g transform="translate(595 363)"><path d="M0 -158.7L137.4 -79.3L137.4 79.3L0 158.7L-137.4 79.3L-137.4 -79.3Z" fill="none" stroke="#226f73" stroke-width="9"></path></g><g transform="translate(25 340)"><path d="M0 -119L103.1 -59.5L103.1 59.5L0 119L-103.1 59.5L-103.1 -59.5Z" fill="none" stroke="#226f73" stroke-width="9"></path></g><g transform="translate(326 74)"><path d="M0 -101L87.5 -50.5L87.5 50.5L0 101L-87.5 50.5L-87.5 -50.5Z" stroke="#226f73" fill="none" stroke-width="9"></path></g><g transform="translate(223 589)"><path d="M0 -138L119.5 -69L119.5 69L0 138L-119.5 69L-119.5 -69Z" stroke="#226f73" fill="none" stroke-width="9"></path></g><g transform="translate(897 85)"><path d="M0 -113L97.9 -56.5L97.9 56.5L0 113L-97.9 56.5L-97.9 -56.5Z" stroke="#226f73" fill="none" stroke-width="9"></path></g><g transform="translate(14 8)"><path d="M0 -141L122.1 -70.5L122.1 70.5L0 141L-122.1 70.5L-122.1 -70.5Z" stroke="#226f73" fill="none" stroke-width="9"></path></g><g transform="translate(821 589)"><path d="M0 -129L111.7 -64.5L111.7 64.5L0 129L-111.7 64.5L-111.7 -64.5Z" stroke="#226f73" fill="none" stroke-width="9"></path></g></g></svg>